<svg width="43" height="29" viewBox="0 0 43 29" fill="none" xmlns="http://www.w3.org/2000/svg">
<path d="M21.5002 23.001C23.844 23.001 25.8362 22.1807 27.4768 20.54C29.1174 18.8994 29.9377 16.9072 29.9377 14.5635C29.9377 12.2197 29.1174 10.2275 27.4768 8.58691C25.8362 6.94629 23.844 6.12598 21.5002 6.12598C19.1565 6.12598 17.1643 6.94629 15.5237 8.58691C13.8831 10.2275 13.0627 12.2197 13.0627 14.5635C13.0627 16.9072 13.8831 18.8994 15.5237 20.54C17.1643 22.1807 19.1565 23.001 21.5002 23.001ZM21.5002 19.626C20.094 19.626 18.8987 19.1338 17.9143 18.1494C16.9299 17.165 16.4377 15.9697 16.4377 14.5635C16.4377 13.1572 16.9299 11.9619 17.9143 10.9775C18.8987 9.99316 20.094 9.50098 21.5002 9.50098C22.9065 9.50098 24.1018 9.99316 25.0862 10.9775C26.0706 11.9619 26.5627 13.1572 26.5627 14.5635C26.5627 15.9697 26.0706 17.165 25.0862 18.1494C24.1018 19.1338 22.9065 19.626 21.5002 19.626ZM21.5002 28.626C16.9377 28.626 12.7815 27.3525 9.03149 24.8057C5.28149 22.2588 2.56274 18.8447 0.875244 14.5635C2.56274 10.2822 5.28149 6.86816 9.03149 4.32129C12.7815 1.77441 16.9377 0.500977 21.5002 0.500977C26.0627 0.500977 30.219 1.77441 33.969 4.32129C37.719 6.86816 40.4377 10.2822 42.1252 14.5635C40.4377 18.8447 37.719 22.2588 33.969 24.8057C30.219 27.3525 26.0627 28.626 21.5002 28.626ZM21.5002 24.876C25.0315 24.876 28.2737 23.9463 31.2268 22.0869C34.1799 20.2275 36.4377 17.7197 38.0002 14.5635C36.4377 11.4072 34.1799 8.89941 31.2268 7.04004C28.2737 5.18066 25.0315 4.25098 21.5002 4.25098C17.969 4.25098 14.7268 5.18066 11.7737 7.04004C8.82056 8.89941 6.56274 11.4072 5.00024 14.5635C6.56274 17.7197 8.82056 20.2275 11.7737 22.0869C14.7268 23.9463 17.969 24.876 21.5002 24.876Z" fill="black" fill-opacity="0.6"/>
</svg>
