<svg width="24" height="24" viewBox="0 0 24 24" fill="none" xmlns="http://www.w3.org/2000/svg">
<path d="M9.88013 9.88C9.58538 10.1546 9.34897 10.4859 9.185 10.8538C9.02104 11.2218 8.93287 11.6191 8.92576 12.0219C8.91865 12.4247 8.99275 12.8248 9.14364 13.1984C9.29452 13.5719 9.5191 13.9113 9.80397 14.1962C10.0888 14.481 10.4282 14.7056 10.8017 14.8565C11.1753 15.0074 11.5754 15.0815 11.9782 15.0744C12.381 15.0673 12.7783 14.9791 13.1463 14.8151C13.5143 14.6512 13.8455 14.4147 14.1201 14.12M10.7301 5.08C11.1514 5.02751 11.5756 5.00079 12.0001 5C19.0001 5 22.0001 12 22.0001 12C21.553 12.9571 20.9923 13.8569 20.3301 14.68" stroke="#161616" stroke-width="2" stroke-linecap="round" stroke-linejoin="round"/>
<path d="M6.61 6.61C4.62125 7.96462 3.02987 9.82526 2 12C2 12 5 19 12 19C13.9159 19.0051 15.7908 18.4451 17.39 17.39M2 2L22 22" stroke="#161616" stroke-width="2" stroke-linecap="round" stroke-linejoin="round"/>
</svg>
