<svg width="43" height="38" viewBox="0 0 43 38" fill="none" xmlns="http://www.w3.org/2000/svg">
<path d="M29.1875 19.9375L26.4688 17.2188C26.75 15.75 26.3281 14.375 25.2031 13.0938C24.0781 11.8125 22.625 11.3125 20.8438 11.5938L18.125 8.875C18.6562 8.625 19.1953 8.4375 19.7422 8.3125C20.2891 8.1875 20.875 8.125 21.5 8.125C23.8438 8.125 25.8359 8.94531 27.4766 10.5859C29.1172 12.2266 29.9375 14.2188 29.9375 16.5625C29.9375 17.1875 29.875 17.7734 29.75 18.3203C29.625 18.8672 29.4375 19.4063 29.1875 19.9375ZM35.1875 25.8438L32.4688 23.2188C33.6562 22.3125 34.7109 21.3203 35.6328 20.2422C36.5547 19.1641 37.3438 17.9375 38 16.5625C36.4375 13.4063 34.1953 10.8984 31.2734 9.03906C28.3516 7.17969 25.0938 6.25 21.5 6.25C20.5938 6.25 19.7031 6.3125 18.8281 6.4375C17.9531 6.5625 17.0938 6.75 16.25 7L13.3438 4.09375C14.625 3.5625 15.9375 3.16406 17.2812 2.89844C18.625 2.63281 20.0312 2.5 21.5 2.5C26.2188 2.5 30.4219 3.80469 34.1094 6.41406C37.7969 9.02344 40.4688 12.4063 42.125 16.5625C41.4062 18.4063 40.4609 20.1172 39.2891 21.6953C38.1172 23.2734 36.75 24.6563 35.1875 25.8438ZM36.125 37.375L28.25 29.5938C27.1562 29.9375 26.0547 30.1953 24.9453 30.3672C23.8359 30.5391 22.6875 30.625 21.5 30.625C16.7812 30.625 12.5781 29.3203 8.89062 26.7109C5.20313 24.1016 2.53125 20.7188 0.875 16.5625C1.53125 14.9063 2.35938 13.3672 3.35938 11.9453C4.35938 10.5234 5.5 9.25 6.78125 8.125L1.625 2.875L4.25 0.25L38.75 34.75L36.125 37.375ZM9.40625 10.75C8.5 11.5625 7.67188 12.4531 6.92188 13.4219C6.17188 14.3906 5.53125 15.4375 5 16.5625C6.5625 19.7188 8.80469 22.2266 11.7266 24.0859C14.6484 25.9453 17.9062 26.875 21.5 26.875C22.125 26.875 22.7344 26.8359 23.3281 26.7578C23.9219 26.6797 24.5312 26.5938 25.1562 26.5L23.4688 24.7188C23.125 24.8125 22.7969 24.8828 22.4844 24.9297C22.1719 24.9766 21.8438 25 21.5 25C19.1562 25 17.1641 24.1797 15.5234 22.5391C13.8828 20.8984 13.0625 18.9063 13.0625 16.5625C13.0625 16.2188 13.0859 15.8906 13.1328 15.5781C13.1797 15.2656 13.25 14.9375 13.3438 14.5938L9.40625 10.75Z" fill="#1C1B1F" fill-opacity="0.6"/>
</svg>
