<svg width="16" height="19" viewBox="0 0 16 19" fill="none" xmlns="http://www.w3.org/2000/svg">
<path d="M1 5.19238H15" stroke="#FC1313" stroke-opacity="0.7" stroke-width="1.71429" stroke-linecap="round" stroke-linejoin="round"/>
<path d="M2.75 5.19238H13.25V16.2689C13.25 16.5953 13.1271 16.9083 12.9083 17.1391C12.6895 17.3699 12.3928 17.4996 12.0833 17.4996H3.91667C3.60725 17.4996 3.3105 17.3699 3.09171 17.1391C2.87292 16.9083 2.75 16.5953 2.75 16.2689V5.19238Z" stroke="#FC1313" stroke-opacity="0.7" stroke-width="1.71429" stroke-linecap="round" stroke-linejoin="round"/>
<path d="M5.08362 5.19216V4.5768C5.08362 3.76078 5.39091 2.97819 5.93789 2.40117C6.48487 1.82416 7.22674 1.5 8.00028 1.5C8.77383 1.5 9.5157 1.82416 10.0627 2.40117C10.6097 2.97819 10.917 3.76078 10.917 4.5768V5.19216" stroke="#FC1313" stroke-opacity="0.7" stroke-width="1.71429" stroke-linecap="round" stroke-linejoin="round"/>
<path d="M6.25 8.88574V13.8111" stroke="#FC1313" stroke-opacity="0.7" stroke-width="1.71429" stroke-linecap="round" stroke-linejoin="round"/>
<path d="M9.75 8.88574V13.8111" stroke="#FC1313" stroke-opacity="0.7" stroke-width="1.71429" stroke-linecap="round" stroke-linejoin="round"/>
</svg>
