<svg width="17" height="18" viewBox="0 0 17 18" fill="none" xmlns="http://www.w3.org/2000/svg">
<path d="M15.5316 1.67666H14.7886V0.732334C14.7886 0.327623 14.4879 0 14.134 0C13.7625 0 13.4618 0.327623 13.4618 0.732334V2.38972C13.4618 2.79443 13.161 3.12206 12.7895 3.12206C12.418 3.12206 12.135 2.79443 12.135 2.38972V1.67666H9.92357V0.732334C9.92357 0.327623 9.62282 0 9.269 0C8.89748 0 8.59674 0.327623 8.59674 0.732334V2.38972C8.59674 2.79443 8.29599 3.12206 7.94217 3.12206C7.57065 3.12206 7.2699 2.79443 7.2699 2.38972V1.67666H5.05852V0.732334C5.05852 0.327623 4.75777 0 4.38626 0C4.01475 0 3.73169 0.327623 3.73169 0.732334V2.38972C3.73169 2.79443 3.43094 3.12206 3.05943 3.12206C2.68792 3.12206 2.40486 2.79443 2.40486 2.38972V1.67666H1.64414C0.848042 1.67666 0.175781 2.38972 0.175781 3.27623V16.4004C0.175781 17.2677 0.830351 18 1.64414 18H15.5316C16.3454 18 17 17.2869 17 16.4004V3.27623C17 2.38972 16.3454 1.67666 15.5316 1.67666ZM14.8063 14.8009C14.8063 15.2441 14.4702 15.591 14.081 15.591H3.1125C2.70561 15.591 2.38717 15.2248 2.38717 14.8009V7.84368C2.38717 7.40043 2.7233 7.05353 3.1125 7.05353H14.081C14.4879 7.05353 14.8063 7.40043 14.8063 7.84368V14.8009Z" fill="#003467"/>
<path d="M5.71427 8.44141H4.13977C3.8744 8.44141 3.66211 8.67267 3.66211 8.96175V10.2144C3.66211 10.5035 3.8744 10.7348 4.13977 10.7348H5.71427C5.97964 10.7348 6.19193 10.5035 6.19193 10.2144V8.96175C6.19193 8.67267 5.97964 8.44141 5.71427 8.44141Z" fill="#003467"/>
<path d="M9.39201 8.44141H7.8175C7.55214 8.44141 7.33984 8.67267 7.33984 8.96175V10.2144C7.33984 10.5035 7.55214 10.7348 7.8175 10.7348H9.39201C9.65738 10.7348 9.86967 10.5035 9.86967 10.2144V8.96175C9.85198 8.67267 9.63968 8.44141 9.39201 8.44141Z" fill="#003467"/>
<path d="M13.0561 8.44141H11.4816C11.2162 8.44141 11.0039 8.67267 11.0039 8.96175V10.2144C11.0039 10.5035 11.2162 10.7348 11.4816 10.7348H13.0561C13.3214 10.7348 13.5337 10.5035 13.5337 10.2144V8.96175C13.5337 8.67267 13.3214 8.44141 13.0561 8.44141Z" fill="#003467"/>
<path d="M5.71427 11.9102H4.13977C3.8744 11.9102 3.66211 12.1414 3.66211 12.4305V13.6832C3.66211 13.9723 3.8744 14.2035 4.13977 14.2035H5.71427C5.97964 14.2035 6.19193 13.9723 6.19193 13.6832V12.4305C6.19193 12.1414 5.97964 11.9102 5.71427 11.9102Z" fill="#003467"/>
<path d="M9.39201 11.9102H7.8175C7.55214 11.9102 7.33984 12.1414 7.33984 12.4305V13.6832C7.33984 13.9723 7.55214 14.2035 7.8175 14.2035H9.39201C9.65738 14.2035 9.86967 13.9723 9.86967 13.6832V12.4305C9.85198 12.1414 9.63968 11.9102 9.39201 11.9102Z" fill="#003467"/>
<path d="M13.0561 11.9102H11.4816C11.2162 11.9102 11.0039 12.1414 11.0039 12.4305V13.6832C11.0039 13.9723 11.2162 14.2035 11.4816 14.2035H13.0561C13.3214 14.2035 13.5337 13.9723 13.5337 13.6832V12.4305C13.5337 12.1414 13.3214 11.9102 13.0561 11.9102Z" fill="#003467"/>
</svg>
